<?xml version="1.0" encoding="UTF-8" standalone="no"?>
<!-- Generator: Adobe Illustrator 19.0.0, SVG Export Plug-In . SVG Version: 6.00 Build 0)  -->

<svg
   version="1.1"
   id="Layer_1"
   x="0px"
   y="0px"
   viewBox="-100 -100 3100.6655 3738.4905"
   xml:space="preserve"
   inkscape:version="1.2.2 (732a01da63, 2022-12-09)"
   sodipodi:docname="vibe.svg"
   width="3100.665"
   height="3738.49"
   inkscape:export-filename="buzz.png"
   inkscape:export-xdpi="90"
   inkscape:export-ydpi="90"
   xmlns:inkscape="http://www.inkscape.org/namespaces/inkscape"
   xmlns:sodipodi="http://sodipodi.sourceforge.net/DTD/sodipodi-0.dtd"
   xmlns="http://www.w3.org/2000/svg"
   xmlns:svg="http://www.w3.org/2000/svg"
   xmlns:rdf="http://www.w3.org/1999/02/22-rdf-syntax-ns#"
   xmlns:cc="http://creativecommons.org/ns#"
   xmlns:dc="http://purl.org/dc/elements/1.1/"><metadata
   id="metadata43"><rdf:RDF><cc:Work
       rdf:about=""><dc:format>image/svg+xml</dc:format><dc:type
         rdf:resource="http://purl.org/dc/dcmitype/StillImage" /></cc:Work></rdf:RDF></metadata><defs
   id="defs41"><clipPath
     clipPathUnits="userSpaceOnUse"
     id="clipPath24"><path
       d="m 11794.4,5026.5 c 0,0 77.1,-1387.4 1812.6,-1423 0,0 -1381.8,81.8 -1812.6,1423 z"
       id="path22" /></clipPath><linearGradient
     x1="0"
     y1="0"
     x2="1"
     y2="0"
     gradientUnits="userSpaceOnUse"
     gradientTransform="matrix(1102.93,-97.0125,-97.0125,-1102.93,15287.8,4083.9)"
     spreadMethod="pad"
     id="linearGradient32"><stop
       style="stop-opacity:1;stop-color:#00adef"
       offset="0"
       id="stop26" /><stop
       style="stop-opacity:1;stop-color:#00adef"
       offset="0.295699"
       id="stop28" /><stop
       style="stop-opacity:1;stop-color:#2c3892"
       offset="1"
       id="stop30" /></linearGradient><clipPath
     clipPathUnits="userSpaceOnUse"
     id="clipPath42"><path
       d="m 11763.2,5826.6 c 0,0 -528.9,-858.3 348.5,-1839 0,0 -676.7,812.2 -348.5,1839 z"
       id="path40" /></clipPath><linearGradient
     x1="0"
     y1="0"
     x2="1"
     y2="0"
     gradientUnits="userSpaceOnUse"
     gradientTransform="matrix(527.16,-666.996,-501.795,-594.804,13172.5,3340.5)"
     spreadMethod="pad"
     id="linearGradient50"><stop
       style="stop-opacity:1;stop-color:#00adef"
       offset="0"
       id="stop44" /><stop
       style="stop-opacity:1;stop-color:#00adef"
       offset="0.295699"
       id="stop46" /><stop
       style="stop-opacity:1;stop-color:#2c3892"
       offset="1"
       id="stop48" /></linearGradient><clipPath
     clipPathUnits="userSpaceOnUse"
     id="clipPath72"><path
       d="m 2588.92,5926.2 c 0,0 77.06,-1387.4 1812.53,-1423 0,0 -1381.79,81.8 -1812.53,1423 z"
       id="path70" /></clipPath><linearGradient
     x1="0"
     y1="0"
     x2="1"
     y2="0"
     gradientUnits="userSpaceOnUse"
     gradientTransform="matrix(1102.93,-97.0125,-97.0125,-1102.93,6082.28,4983.6)"
     spreadMethod="pad"
     id="linearGradient80"><stop
       style="stop-opacity:1;stop-color:#00adef"
       offset="0"
       id="stop74" /><stop
       style="stop-opacity:1;stop-color:#00adef"
       offset="0.295699"
       id="stop76" /><stop
       style="stop-opacity:1;stop-color:#2c3892"
       offset="1"
       id="stop78" /></linearGradient><clipPath
     clipPathUnits="userSpaceOnUse"
     id="clipPath90"><path
       d="m 2557.65,6726.3 c 0,0 -528.9,-858.3 348.55,-1839 0,0 -676.73,812.3 -348.55,1839 z"
       id="path88" /></clipPath><linearGradient
     x1="0"
     y1="0"
     x2="1"
     y2="0"
     gradientUnits="userSpaceOnUse"
     gradientTransform="matrix(527.16,-666.996,-501.795,-594.804,3967.03,4240.2)"
     spreadMethod="pad"
     id="linearGradient98"><stop
       style="stop-opacity:1;stop-color:#00adef"
       offset="0"
       id="stop92" /><stop
       style="stop-opacity:1;stop-color:#00adef"
       offset="0.295699"
       id="stop94" /><stop
       style="stop-opacity:1;stop-color:#2c3892"
       offset="1"
       id="stop96" /></linearGradient><clipPath
     clipPathUnits="userSpaceOnUse"
     id="clipPath110"><path
       d="m 12268.9,14695.1 c 0,0 488.2,-2310.6 3412.5,-1921.6 0,0 -2342.2,-219.9 -3412.5,1921.6 z"
       id="path108" /></clipPath><linearGradient
     x1="0"
     y1="0"
     x2="1"
     y2="0"
     gradientUnits="userSpaceOnUse"
     gradientTransform="matrix(1877.7,122.261,122.261,-1877.7,18380.5,14015.2)"
     spreadMethod="pad"
     id="linearGradient118"><stop
       style="stop-opacity:1;stop-color:#00adef"
       offset="0"
       id="stop112" /><stop
       style="stop-opacity:1;stop-color:#00adef"
       offset="0.295699"
       id="stop114" /><stop
       style="stop-opacity:1;stop-color:#2c3892"
       offset="1"
       id="stop116" /></linearGradient><clipPath
     clipPathUnits="userSpaceOnUse"
     id="clipPath128"><path
       d="m 15815.2,16419 c -93.9,4.2 -182.4,2.3 -266.1,-4.9 -314.7,-27.2 -559,-128.8 -745.9,-255.2 -405.3,-274.1 -540.8,-664.8 -540.8,-664.8 113.4,159.3 245.2,290.2 385,397.8 252.9,194.4 532.5,312.5 778.9,384.3 115.1,33.6 222.9,57 317.5,73.3 88.4,15.3 165.2,24.4 225.2,29.9 9.2,8.1 18.3,16.2 27.6,24.2 -62.5,7.7 -123,12.8 -181.4,15.4 z"
       id="path126" /></clipPath><linearGradient
     x1="0"
     y1="0"
     x2="1"
     y2="0"
     gradientUnits="userSpaceOnUse"
     gradientTransform="matrix(45643.7,12448.3,12448.3,-45643.7,-4296.91,10731.7)"
     spreadMethod="pad"
     id="linearGradient134"><stop
       style="stop-opacity:1;stop-color:#00adef"
       offset="0"
       id="stop130" /><stop
       style="stop-opacity:1;stop-color:#2c3892"
       offset="1"
       id="stop132" /></linearGradient><clipPath
     clipPathUnits="userSpaceOnUse"
     id="clipPath144"><path
       d="m 14060.1,14010 c -134.5,277.1 -200,602.2 -180.6,928.5 27.2,456.4 219.9,1043.4 940.1,1403.4 -913.5,-342 -1143.8,-1002.5 -1173.7,-1504.7 -19.4,-326.4 46.1,-651.5 180.6,-928.6 833.6,-1717.7 2656.1,-937.3 3006,-767.5 -617.9,-240.7 -2058.1,-602.9 -2772.4,868.9 z"
       id="path142" /></clipPath><linearGradient
     x1="0"
     y1="0"
     x2="1"
     y2="0"
     gradientUnits="userSpaceOnUse"
     gradientTransform="matrix(6161.75,1680.48,1680.48,-6161.75,13455.7,14066)"
     spreadMethod="pad"
     id="linearGradient150"><stop
       style="stop-opacity:1;stop-color:#00adef"
       offset="0"
       id="stop146" /><stop
       style="stop-opacity:1;stop-color:#2c3892"
       offset="1"
       id="stop148" /></linearGradient><clipPath
     clipPathUnits="userSpaceOnUse"
     id="clipPath160"><path
       d="m 15129.5,15957.6 c 0,0 496.1,418.4 1103.8,-95.2 0,0 -562.1,334.3 -1103.8,95.2 z"
       id="path158" /></clipPath><linearGradient
     x1="0"
     y1="0"
     x2="1"
     y2="0"
     gradientUnits="userSpaceOnUse"
     gradientTransform="matrix(3323.64,-920.891,-920.891,-3323.64,14686.1,16242.3)"
     spreadMethod="pad"
     id="linearGradient166"><stop
       style="stop-opacity:1;stop-color:#00adef"
       offset="0"
       id="stop162" /><stop
       style="stop-opacity:1;stop-color:#2c3892"
       offset="1"
       id="stop164" /></linearGradient><clipPath
     clipPathUnits="userSpaceOnUse"
     id="clipPath176"><path
       d="m 3295.49,13753.6 c 1451.93,-1428.9 3276.78,-606.3 3276.78,-606.3 -2246.89,-1119.2 -3276.78,606.3 -3276.78,606.3 z m -290.32,365.3 c 430.74,-1341.3 1812.53,-1423.1 1812.53,-1423.1 -1735.47,35.6 -1812.53,1423.1 -1812.53,1423.1 z M 2973.9,14919 C 2645.72,13892.2 3322.45,13079.9 3322.45,13079.9 2445,14060.6 2973.9,14919 2973.9,14919 Z m 4653.29,-370.1 c -442.85,-84.5 -987.83,-283.3 -1596.4,-704.2 0,0 -1999.71,-1408.2 -2707.57,390.8 -0.51,1.3 -0.77,1.9 -0.77,1.9 0.26,-0.6 0.52,-1.3 0.77,-1.9 25.21,-62.5 675.94,-1612.1 2624.78,-84.1 655.72,514.1 1201.94,714.2 1635.44,756.9 -51.73,229.6 -135.58,447 -246.61,647.3 522,341.4 1173.81,482.5 1173.81,482.5 -511.71,46.1 -1002.86,-196.2 -1254.21,-347.8 -0.39,0.6 -0.78,1.3 -1.17,1.9 -356.8,-210.9 -754.06,-531.5 -1150.74,-1018.5 0,0 -1528.42,-1909.4 -2709.28,-378.8 -0.85,1.1 -1.28,1.7 -1.28,1.7 0.43,-0.6 0.85,-1.1 1.28,-1.7 41.63,-53 1098.17,-1360.1 2544.36,650.2 380.61,529.1 750.35,855 1086.94,1049.3 -450.29,508.5 -1108.07,829.1 -1840.74,829.1 -1357.39,0 -2457.77,-1100.4 -2457.77,-2457.8 0,-1357.3 1100.38,-2457.7 2457.77,-2457.7 1357.39,0 2457.77,1100.4 2457.77,2457.7 0,14.9 -0.15,29.8 -0.42,44.7 433.05,118.4 814.79,137.4 814.79,137.4 -285.69,74 -580.16,53 -830.75,1.1 z"
       id="path174" /></clipPath><linearGradient
     x1="0"
     y1="0"
     x2="1"
     y2="0"
     gradientUnits="userSpaceOnUse"
     gradientTransform="matrix(5782.61,0,0,-5782.61,2728.03,14365.7)"
     spreadMethod="pad"
     id="linearGradient184"><stop
       style="stop-opacity:1;stop-color:#00adef"
       offset="0"
       id="stop178" /><stop
       style="stop-opacity:1;stop-color:#00adef"
       offset="0.295699"
       id="stop180" /><stop
       style="stop-opacity:1;stop-color:#2c3892"
       offset="1"
       id="stop182" /></linearGradient><clipPath
     clipPathUnits="userSpaceOnUse"
     id="clipPath24-4"><path
       d="m 11794.4,5026.5 c 0,0 77.1,-1387.4 1812.6,-1423 0,0 -1381.8,81.8 -1812.6,1423 z"
       id="path22-6" /></clipPath><clipPath
     clipPathUnits="userSpaceOnUse"
     id="clipPath42-5"><path
       d="m 11763.2,5826.6 c 0,0 -528.9,-858.3 348.5,-1839 0,0 -676.7,812.2 -348.5,1839 z"
       id="path40-5" /></clipPath><clipPath
     clipPathUnits="userSpaceOnUse"
     id="clipPath72-7"><path
       d="m 2588.92,5926.2 c 0,0 77.06,-1387.4 1812.53,-1423 0,0 -1381.79,81.8 -1812.53,1423 z"
       id="path70-3" /></clipPath><clipPath
     clipPathUnits="userSpaceOnUse"
     id="clipPath90-9"><path
       d="m 2557.65,6726.3 c 0,0 -528.9,-858.3 348.55,-1839 0,0 -676.73,812.3 -348.55,1839 z"
       id="path88-6" /></clipPath><clipPath
     clipPathUnits="userSpaceOnUse"
     id="clipPath110-5"><path
       d="m 12268.9,14695.1 c 0,0 488.2,-2310.6 3412.5,-1921.6 0,0 -2342.2,-219.9 -3412.5,1921.6 z"
       id="path108-9" /></clipPath><clipPath
     clipPathUnits="userSpaceOnUse"
     id="clipPath128-9"><path
       d="m 15815.2,16419 c -93.9,4.2 -182.4,2.3 -266.1,-4.9 -314.7,-27.2 -559,-128.8 -745.9,-255.2 -405.3,-274.1 -540.8,-664.8 -540.8,-664.8 113.4,159.3 245.2,290.2 385,397.8 252.9,194.4 532.5,312.5 778.9,384.3 115.1,33.6 222.9,57 317.5,73.3 88.4,15.3 165.2,24.4 225.2,29.9 9.2,8.1 18.3,16.2 27.6,24.2 -62.5,7.7 -123,12.8 -181.4,15.4 z"
       id="path126-1" /></clipPath><clipPath
     clipPathUnits="userSpaceOnUse"
     id="clipPath144-7"><path
       d="m 14060.1,14010 c -134.5,277.1 -200,602.2 -180.6,928.5 27.2,456.4 219.9,1043.4 940.1,1403.4 -913.5,-342 -1143.8,-1002.5 -1173.7,-1504.7 -19.4,-326.4 46.1,-651.5 180.6,-928.6 833.6,-1717.7 2656.1,-937.3 3006,-767.5 -617.9,-240.7 -2058.1,-602.9 -2772.4,868.9 z"
       id="path142-4" /></clipPath><clipPath
     clipPathUnits="userSpaceOnUse"
     id="clipPath160-0"><path
       d="m 15129.5,15957.6 c 0,0 496.1,418.4 1103.8,-95.2 0,0 -562.1,334.3 -1103.8,95.2 z"
       id="path158-9" /></clipPath><clipPath
     clipPathUnits="userSpaceOnUse"
     id="clipPath176-8"><path
       d="m 3295.49,13753.6 c 1451.93,-1428.9 3276.78,-606.3 3276.78,-606.3 -2246.89,-1119.2 -3276.78,606.3 -3276.78,606.3 z m -290.32,365.3 c 430.74,-1341.3 1812.53,-1423.1 1812.53,-1423.1 -1735.47,35.6 -1812.53,1423.1 -1812.53,1423.1 z M 2973.9,14919 C 2645.72,13892.2 3322.45,13079.9 3322.45,13079.9 2445,14060.6 2973.9,14919 2973.9,14919 Z m 4653.29,-370.1 c -442.85,-84.5 -987.83,-283.3 -1596.4,-704.2 0,0 -1999.71,-1408.2 -2707.57,390.8 -0.51,1.3 -0.77,1.9 -0.77,1.9 0.26,-0.6 0.52,-1.3 0.77,-1.9 25.21,-62.5 675.94,-1612.1 2624.78,-84.1 655.72,514.1 1201.94,714.2 1635.44,756.9 -51.73,229.6 -135.58,447 -246.61,647.3 522,341.4 1173.81,482.5 1173.81,482.5 -511.71,46.1 -1002.86,-196.2 -1254.21,-347.8 -0.39,0.6 -0.78,1.3 -1.17,1.9 -356.8,-210.9 -754.06,-531.5 -1150.74,-1018.5 0,0 -1528.42,-1909.4 -2709.28,-378.8 -0.85,1.1 -1.28,1.7 -1.28,1.7 0.43,-0.6 0.85,-1.1 1.28,-1.7 41.63,-53 1098.17,-1360.1 2544.36,650.2 380.61,529.1 750.35,855 1086.94,1049.3 -450.29,508.5 -1108.07,829.1 -1840.74,829.1 -1357.39,0 -2457.77,-1100.4 -2457.77,-2457.8 0,-1357.3 1100.38,-2457.7 2457.77,-2457.7 1357.39,0 2457.77,1100.4 2457.77,2457.7 0,14.9 -0.15,29.8 -0.42,44.7 433.05,118.4 814.79,137.4 814.79,137.4 -285.69,74 -580.16,53 -830.75,1.1 z"
       id="path174-2" /></clipPath><linearGradient
     x1="0"
     y1="0"
     x2="1"
     y2="0"
     gradientUnits="userSpaceOnUse"
     gradientTransform="matrix(5782.61,0,0,-5782.61,2728.03,14365.7)"
     spreadMethod="pad"
     id="linearGradient184-3"><stop
       style="stop-opacity:1;stop-color:#00adef"
       offset="0"
       id="stop178-5" /><stop
       style="stop-opacity:1;stop-color:#00adef"
       offset="0.295699"
       id="stop180-0" /><stop
       style="stop-opacity:1;stop-color:#2c3892"
       offset="1"
       id="stop182-2" /></linearGradient></defs><sodipodi:namedview
   pagecolor="#ffffff"
   bordercolor="#666666"
   borderopacity="1"
   objecttolerance="10"
   gridtolerance="10"
   guidetolerance="10"
   inkscape:pageopacity="0"
   inkscape:pageshadow="2"
   inkscape:window-width="1928"
   inkscape:window-height="1585"
   id="namedview39"
   showgrid="false"
   inkscape:zoom="0.25000001"
   inkscape:cx="1877.9999"
   inkscape:cy="1973.9999"
   inkscape:window-x="200"
   inkscape:window-y="197"
   inkscape:window-maximized="0"
   inkscape:current-layer="Layer_1"
   fit-margin-top="100"
   fit-margin-left="100"
   fit-margin-right="100"
   fit-margin-bottom="100"
   inkscape:pagecheckerboard="0"
   inkscape:showpageshadow="0"
   inkscape:deskcolor="#d1d1d1" /><g
   id="g9"
   transform="matrix(1.7497549,0,0,1.7497549,-1255.9447,4717.5349)"
   style="stroke:#4ba6c2;stroke-opacity:1" /><g
   id="g11"
   transform="matrix(1.7497549,0,0,1.7497549,-1255.9447,4717.5349)"
   style="stroke:#4ba6c2;stroke-opacity:1" /><g
   id="g13"
   transform="matrix(1.7497549,0,0,1.7497549,-1255.9447,4717.5349)"
   style="stroke:#4ba6c2;stroke-opacity:1" /><g
   id="g15"
   transform="matrix(1.7497549,0,0,1.7497549,-1255.9447,4717.5349)"
   style="stroke:#4ba6c2;stroke-opacity:1" /><g
   id="g17"
   transform="matrix(1.7497549,0,0,1.7497549,-1255.9447,4717.5349)"
   style="stroke:#4ba6c2;stroke-opacity:1" /><g
   id="g19"
   transform="matrix(1.7497549,0,0,1.7497549,-1255.9447,4717.5349)"
   style="stroke:#4ba6c2;stroke-opacity:1" /><g
   id="g21"
   transform="matrix(1.7497549,0,0,1.7497549,-1255.9447,4717.5349)"
   style="stroke:#4ba6c2;stroke-opacity:1" /><g
   id="g23"
   transform="matrix(1.7497549,0,0,1.7497549,-1255.9447,4717.5349)"
   style="stroke:#4ba6c2;stroke-opacity:1" /><g
   id="g25"
   transform="matrix(1.7497549,0,0,1.7497549,-1255.9447,4717.5349)"
   style="stroke:#4ba6c2;stroke-opacity:1" /><g
   id="g27"
   transform="matrix(1.7497549,0,0,1.7497549,-1255.9447,4717.5349)"
   style="stroke:#4ba6c2;stroke-opacity:1" /><g
   id="g29"
   transform="matrix(1.7497549,0,0,1.7497549,-1255.9447,4717.5349)"
   style="stroke:#4ba6c2;stroke-opacity:1" /><g
   id="g31"
   transform="matrix(1.7497549,0,0,1.7497549,-1255.9447,4717.5349)"
   style="stroke:#4ba6c2;stroke-opacity:1" /><g
   id="g33"
   transform="matrix(1.7497549,0,0,1.7497549,-1255.9447,4717.5349)"
   style="stroke:#4ba6c2;stroke-opacity:1" /><g
   id="g35"
   transform="matrix(1.7497549,0,0,1.7497549,-1255.9447,4717.5349)"
   style="stroke:#4ba6c2;stroke-opacity:1" /><g
   id="g37"
   transform="matrix(1.7497549,0,0,1.7497549,-1255.9447,4717.5349)"
   style="stroke:#4ba6c2;stroke-opacity:1" /><text
   xml:space="preserve"
   style="font-style:normal;font-weight:normal;font-size:85.1949px;line-height:125%;font-family:sans-serif;letter-spacing:0px;word-spacing:0px;fill:#1785f8;fill-opacity:1;stroke:#1785f8;stroke-width:30.329;stroke-linecap:butt;stroke-linejoin:miter;stroke-miterlimit:4;stroke-dasharray:none;stroke-opacity:1"
   x="-129.78224"
   y="3511.6262"
   id="text4189"><tspan
     sodipodi:role="line"
     id="tspan4191"
     x="-129.78224"
     y="3511.6262"
     style="font-style:normal;font-variant:normal;font-weight:normal;font-stretch:normal;font-size:1331.17px;font-family:Candara;-inkscape-font-specification:Candara;fill:#1785f8;fill-opacity:1;stroke:#1785f8;stroke-width:30.329;stroke-miterlimit:4;stroke-dasharray:none;stroke-opacity:1">BUZZ</tspan></text>
<g
   id="g698"
   transform="matrix(0.54685946,0,0,0.54685946,49.897193,-228.58725)"><g
     id="l2IRJEgH97fmLKoHUWThg5M"
     fill="#f8f6f6"><g
       id="g513"><path
         id="p13VRTmeDr"
         d="m 1470,4139 c -177,-30 -326,-177 -360,-358 -14,-76 -12,-950 3,-1021 12,-53 14,-55 62,-75 49,-20 73,-20 1110,-23 788,-2 1074,0 1115,9 109,23 200,82 267,172 82,112 83,119 83,686 0,304 -4,510 -10,532 -12,44 -52,64 -158,79 -85,12 -2037,11 -2112,-1 z m 1182,-379 c 53,-20 143,-82 152,-105 8,-21 -3,-43 -24,-50 -12,-4 -35,6 -64,29 -97,74 -259,73 -354,-2 -45,-36 -54,-38 -76,-16 -23,22 -20,31 17,65 47,44 105,76 167,93 61,17 111,13 182,-14 z m -647,-500 c 50,-34 95,-113 95,-166 0,-83 -69,-169 -160,-199 -94,-31 -204,38 -244,153 -22,60 0,129 59,187 78,79 160,87 250,25 z m 1321,-5 c 42,-32 70,-75 85,-129 25,-92 -67,-212 -184,-240 -35,-8 -119,28 -161,70 -37,38 -66,96 -66,134 0,86 83,183 180,210 33,9 103,-12 146,-45 z" /></g></g><g
     id="lTqDkKlcUqFZCcOV12f1Pf"
     fill="#e2e2e2"><g
       id="g524"><path
         id="pt6XSlCzc"
         d="m 1448,4138 c -27,-6 -48,-14 -48,-19 0,-5 -9,-9 -19,-9 -33,0 -51,-11 -51,-31 0,-14 -7,-19 -30,-19 -27,0 -30,-3 -30,-31 v -31 l 33,24 c 66,51 129,75 240,93 23,4 37,11 37,20 0,18 -57,18 -132,3 z" /><path
         id="p17fl3Mg1Q"
         d="m 3480,4136 c 0,-15 17,-20 103,-31 42,-6 47,-4 47,13 0,15 -9,21 -37,26 -67,11 -113,7 -113,-8 z" /><path
         id="p18K1rbFrJ"
         d="m 3670,4090 c 0,-6 7,-13 15,-16 31,-12 35,-79 35,-545 0,-533 -1,-544 -83,-656 -67,-90 -158,-149 -267,-172 -41,-9 -320,-11 -1085,-9 -1005,3 -1031,3 -1079,23 -52,21 -55,25 -70,118 -5,24 -12,37 -23,37 -13,0 -15,-9 -10,-60 15,-135 83,-252 193,-325 118,-80 35,-76 1254,-73 l 1085,3 57,23 c 63,26 153,101 197,166 15,23 39,68 52,101 24,60 24,63 27,523 2,304 -1,488 -8,535 -19,126 -88,240 -185,307 -43,29 -105,41 -105,20 z" /><path
         id="p1Ap9HjmUL"
         d="m 1190,3950 c 0,-23 -5,-30 -19,-30 -25,0 -57,-81 -67,-169 -5,-51 -4,-61 9,-61 14,0 27,28 27,62 0,32 41,127 76,178 l 34,50 h -30 c -27,0 -30,-3 -30,-30 z" /><path
         id="p12DNQpGmA"
         d="m 2442,3805 c -65,-18 -84,-28 -144,-73 -73,-55 -85,-106 -35,-152 32,-30 67,-25 126,19 99,74 205,74 303,0 59,-44 94,-49 126,-19 51,48 34,106 -50,163 -99,68 -222,91 -326,62 z m 228,-56 c 30,-12 59,-29 63,-36 4,-7 13,-13 20,-13 22,-1 49,-49 43,-76 -6,-24 -30,-32 -41,-14 -3,6 -15,10 -26,10 -10,0 -19,7 -19,15 0,25 -61,48 -143,53 -74,4 -167,-11 -167,-28 0,-4 -9,-10 -20,-13 -11,-3 -20,-12 -20,-21 0,-9 -6,-16 -12,-16 -7,0 -23,-3 -35,-6 -16,-4 -23,0 -28,15 -8,26 15,81 33,81 8,0 28,10 45,22 86,61 203,72 307,27 z" /><path
         id="pEcaOwuM8"
         d="m 1650,3078 c 0,-30 13,-58 26,-58 9,0 14,12 14,35 0,28 -4,35 -20,35 -11,0 -20,-6 -20,-12 z" /><path
         id="ps1nofZmS"
         d="m 2970,3044 c 0,-21 18,-54 30,-54 6,0 10,16 10,35 0,28 -4,35 -20,35 -11,0 -20,-7 -20,-16 z" /><path
         id="pAkaRD0Xw"
         d="m 3130,2876 c 0,-13 28,-26 58,-26 6,0 12,9 12,20 0,16 -7,20 -35,20 -23,0 -35,-5 -35,-14 z" /></g></g><g
     id="l1XEWZs8F1tOa5KDZhKlDKz"
     fill="#fcd79f"><g
       id="g532"><path
         id="pcQEJLsj7"
         d="m 1817,3324 c -111,-35 -182,-159 -159,-274 48,-227 353,-270 453,-63 36,74 27,213 -13,213 -7,0 -8,-20 -4,-63 6,-48 3,-73 -10,-105 -18,-46 -73,-107 -104,-117 -11,-4 -20,-11 -20,-16 0,-16 -97,-10 -137,9 -43,20 -99,72 -108,102 -3,11 -11,20 -16,20 -15,0 -10,86 7,130 18,44 73,105 104,115 11,4 20,11 20,17 0,7 20,8 58,4 111,-11 132,-17 132,-36 0,-25 24,-42 57,-38 l 28,3 -36,36 c -69,68 -162,92 -252,63 z" /><path
         id="p1AlhQ5zFl"
         d="m 3150,3331 c -73,-22 -138,-79 -165,-145 -38,-91 -8,-216 68,-275 15,-12 17,-11 17,18 0,21 -5,31 -15,31 -8,0 -15,9 -15,20 0,11 -4,20 -8,20 -5,0 -14,22 -21,48 -9,39 -9,58 1,95 7,26 16,47 20,47 4,0 8,16 8,35 0,33 2,35 35,35 23,0 35,5 35,14 0,8 17,16 46,20 68,9 114,7 114,-4 0,-5 11,-12 25,-16 14,-3 25,-10 25,-15 0,-5 11,-9 25,-9 20,0 25,-5 25,-25 0,-15 6,-25 14,-25 9,0 16,-18 20,-50 6,-42 10,-50 27,-50 19,0 20,4 14,37 -17,90 -81,162 -169,188 -54,16 -87,18 -126,6 z" /><path
         id="pqY3pm0Ym"
         d="m 3406,3058 c -3,-13 -6,-33 -6,-45 0,-14 -6,-23 -15,-23 -10,0 -15,-10 -15,-30 0,-27 -3,-30 -30,-30 -19,0 -30,-5 -30,-14 0,-14 -60,-26 -131,-26 -51,0 -54,-26 -4,-36 68,-12 155,18 207,73 29,30 67,107 68,136 0,26 -36,22 -44,-5 z" /><path
         id="pbuBU3wlz"
         d="m 3518,1978 -4,-153 -47,-48 c -89,-90 -132,-167 -93,-167 10,0 4,-19 -20,-68 -54,-108 -74,-205 -74,-354 0,-112 -2,-128 -16,-128 -14,0 -16,-8 -10,-50 10,-77 21,-99 45,-93 17,4 25,-5 46,-52 82,-185 261,-343 470,-412 73,-24 97,-26 281,-31 l 201,-4 84,39 c 209,99 360,279 421,500 30,112 31,363 0,474 -60,220 -204,395 -407,495 l -91,44 h -123 c -109,0 -122,2 -111,15 11,13 1,15 -78,15 -88,0 -93,2 -248,65 -87,36 -173,65 -190,65 h -32 z m 1204,-600 21,-21 -27,-24 -27,-23 h -437 c -380,0 -440,2 -460,16 -26,18 -28,37 -6,58 14,14 70,16 465,16 447,0 449,0 471,-22 z m -230,-355 c 24,-21 23,-39 -4,-57 -34,-24 -662,-24 -696,0 -26,18 -28,31 -5,56 15,17 39,18 351,18 298,0 337,-2 354,-17 z" /><path
         id="p1DiswEsb5"
         d="m 4548,1974 c -5,-4 -8,-20 -8,-36 0,-25 4,-28 40,-34 22,-4 40,-10 40,-15 0,-5 16,-9 35,-9 19,0 35,5 35,10 0,6 -5,10 -10,10 -7,0 -7,6 0,19 14,28 13,31 -14,31 -13,0 -26,5 -28,11 -4,13 -80,24 -90,13 z" /></g></g><g
     id="lD5OqoKuaU8nt941rBL36e"
     fill="#fac574"><g
       id="g552"><path
         id="pNRar8TSc"
         d="m 1868,3333 c -10,-2 -18,-11 -18,-19 0,-10 13,-14 45,-14 32,0 45,4 45,14 0,11 -33,28 -50,25 -3,-1 -13,-3 -22,-6 z" /><path
         id="p6nfNNiPi"
         d="m 3178,3333 c -34,-9 -20,-33 18,-33 28,0 35,3 32,17 -3,19 -21,24 -50,16 z" /><path
         id="pRK9IILgA"
         d="m 1789,3310 c -37,-19 -109,-92 -109,-110 0,-6 11,-10 25,-10 22,0 25,4 25,35 0,33 2,35 35,35 19,0 35,5 35,10 0,6 9,10 20,10 15,0 20,7 20,25 0,30 -4,30 -51,5 z" /><path
         id="pCnFRXWV0"
         d="m 3102,3309 c -44,-22 -106,-86 -115,-120 -4,-15 0,-19 19,-19 15,0 24,6 24,15 0,8 5,15 10,15 6,0 10,11 10,25 0,20 5,25 25,25 14,0 25,4 25,9 0,5 11,12 25,15 18,5 25,13 25,31 0,14 -1,25 -2,25 -2,0 -22,-10 -46,-21 z" /><path
         id="pKrrjoJb3"
         d="m 3360,3246 c 0,-33 2,-36 31,-36 h 30 l -21,30 c -31,44 -40,45 -40,6 z" /><path
         id="p1AsgMkd0P"
         d="m 1657,3111 c -11,-42 20,-137 39,-119 11,12 -8,138 -21,138 -7,0 -15,-9 -18,-19 z" /><path
         id="p17zu9BOer"
         d="m 3410,3055 c 0,-40 24,-49 34,-12 10,37 7,47 -14,47 -16,0 -20,-7 -20,-35 z" /><path
         id="piH0p6zgj"
         d="m 2982,3013 c 35,-74 48,-81 48,-28 0,31 -3,35 -26,35 -14,0 -24,-3 -22,-7 z" /><path
         id="pqRADoxfY"
         d="m 1711,2941 c 7,-10 20,-23 30,-30 17,-10 19,-8 19,19 0,27 -3,30 -30,30 -27,0 -29,-2 -19,-19 z" /><path
         id="pe2frQsOM"
         d="m 3051,2914 c 11,-14 81,-54 94,-54 3,0 5,11 5,25 0,18 -5,25 -20,25 -11,0 -20,5 -20,10 0,6 -16,10 -36,10 -32,0 -35,-2 -23,-16 z" /><path
         id="pbrWrX4uo"
         d="m 1830,2876 c 0,-13 28,-26 58,-26 6,0 12,9 12,20 0,16 -7,20 -35,20 -23,0 -35,-5 -35,-14 z" /><path
         id="pPtMOcDjl"
         d="m 3200,2870 c 0,-21 10,-24 48,-14 36,10 27,34 -13,34 -28,0 -35,-4 -35,-20 z" /><path
         id="p19Tyx3OJK"
         d="m 3632,2078 c 4,-11 31,-24 171,-79 l 47,-19 v 25 c 0,20 -5,25 -25,25 -14,0 -25,5 -25,10 0,6 -11,10 -25,10 -14,0 -25,5 -25,10 0,6 -11,10 -25,10 -14,0 -25,5 -25,10 0,6 -16,10 -36,10 -24,0 -34,-4 -32,-12 z" /><path
         id="p13wYJKPVr"
         d="m 4543,1966 c -8,-14 -16,-15 -54,-7 -24,6 -109,10 -189,10 h -145 l 69,-19 c 266,-72 476,-281 548,-549 29,-108 29,-305 0,-414 -72,-266 -280,-473 -550,-548 l -67,-19 170,4 c 188,4 243,15 360,71 196,93 349,279 407,492 29,110 29,306 0,416 -54,198 -188,371 -369,473 -43,25 -50,33 -41,47 8,15 3,20 -28,33 -61,25 -100,29 -111,10 z" /><path
         id="pb9lPJo7k"
         d="m 3510,1875 c 0,-57 3,-75 14,-75 17,0 26,31 26,98 0,45 -3,52 -20,52 -18,0 -20,-7 -20,-75 z" /><path
         id="puP9Mlp6d"
         d="m 3430,1714 c 0,-39 9,-38 40,6 l 21,30 h -30 c -29,0 -31,-3 -31,-36 z" /><path
         id="pF9jQrJN4"
         d="m 4734,1404 c 3,-9 9,-33 12,-55 4,-21 10,-36 15,-33 12,7 11,61 -1,85 -13,23 -35,26 -26,3 z" /></g></g><g
     id="l6KGpiRk22QFarF2k9sIsF9"
     fill="#9c9c9c"><g
       id="g563"><path
         id="phR6rxNMo"
         d="m 2423,3796 c -54,-17 -137,-70 -163,-104 -36,-45 -15,-118 35,-123 40,-3 52,2 96,35 100,76 209,75 307,-4 71,-57 142,-35 142,43 0,39 -63,100 -139,135 -68,32 -209,41 -278,18 z" /><path
         id="prPfHZu7u"
         d="m 700,3780 c 0,-5 -9,-10 -20,-10 -19,0 -20,-7 -20,-205 v -205 h 35 35 v 215 c 0,184 -2,215 -15,215 -8,0 -15,-4 -15,-10 z" /><path
         id="p4omUd2un"
         d="m 240,2811 c 0,-6 4,-11 9,-11 5,0 11,-105 14,-232 4,-186 9,-253 26,-330 119,-547 516,-969 1140,-1213 187,-72 519,-154 696,-170 89,-8 105,-13 105,-31 0,-8 7,-14 15,-14 9,0 15,9 15,24 0,13 7,43 15,66 16,44 21,115 7,93 -6,-9 -32,-9 -117,2 -346,46 -600,118 -870,250 -222,108 -384,222 -520,367 -263,278 -375,584 -375,1023 0,113 2,135 15,135 8,0 15,6 15,14 0,9 -18,16 -57,20 -32,3 -75,8 -95,12 -25,4 -38,2 -38,-5 z" /><path
         id="pMel6TYLG"
         d="m 4755,2810 c -11,-5 -41,-9 -67,-9 -36,-1 -48,-5 -48,-16 0,-8 7,-15 15,-15 13,0 15,-24 15,-153 0,-237 -29,-406 -99,-582 -17,-43 -30,-78 -29,-79 2,-1 28,-10 58,-20 30,-10 60,-20 66,-23 16,-6 82,172 110,297 27,117 48,365 42,501 -1,49 0,89 5,89 4,0 7,5 7,10 0,12 -47,12 -75,0 z" /><path
         id="p18NFCEhJI"
         d="m 2430,1605 c 0,-8 7,-15 15,-15 13,0 15,-33 15,-235 0,-150 -4,-235 -10,-235 -5,0 -10,-4 -10,-9 0,-5 43,-9 95,-9 52,0 95,4 95,9 0,5 -4,9 -10,9 -6,0 -10,85 -10,235 0,202 2,235 15,235 8,0 15,7 15,15 0,12 -18,15 -105,15 -87,0 -105,-3 -105,-15 z" /><path
         id="pNLpCuIUv"
         d="m 3750,1408 c -27,-30 -26,-73 5,-103 l 24,-25 h 469 c 460,0 470,0 496,21 33,26 36,79 6,109 -19,19 -33,20 -500,20 h -479 z" /><path
         id="p3OOjX4f8"
         d="m 3751,1044 c -28,-35 -26,-69 4,-99 l 24,-25 h 361 361 l 24,25 c 30,30 32,64 4,99 l -20,26 h -369 -369 z" /><path
         id="pEmKZrtjh"
         d="m 3170,1039 c -147,-32 -373,-60 -382,-46 -14,21 -9,-35 9,-108 10,-38 19,-72 20,-74 2,-3 12,5 23,17 14,15 33,22 58,22 65,0 394,59 408,73 8,8 -29,137 -40,136 -6,-1 -49,-10 -96,-20 z" /></g></g><g
     id="l3m7RAWZsY07JbBL3Yr6LpV"
     fill="#31a7fb"><g
       id="g568"><path
         id="pWXkQpkwM"
         d="M 260,3406 C 168,3382 78,3302 34,3205 l -24,-53 25,-79 c 43,-138 105,-215 220,-277 49,-26 53,-26 247,-26 125,0 198,-4 198,-10 0,-5 5,-10 10,-10 6,0 10,118 10,335 0,199 -4,335 -9,335 -5,0 -12,-8 -14,-17 -4,-17 -5,-17 -6,0 -1,16 -17,17 -193,16 -119,0 -210,-5 -238,-13 z" /><path
         id="pwRG4WUKS"
         d="m 4350,3086 c 0,-217 4,-336 10,-336 6,0 10,4 10,9 0,6 86,11 208,13 l 207,3 55,36 c 30,20 72,53 92,74 70,73 137,244 114,295 -41,96 -109,169 -195,212 -43,21 -60,23 -273,26 l -228,4 z" /></g></g><g
     id="l4qweDTwTTTCIAdH9hjM3Uf"
     fill="#fb8627"><g
       id="g577"><path
         id="pl92kc78m"
         d="m 1865,3332 c -72,-7 -161,-76 -191,-148 -8,-19 -14,-58 -14,-89 0,-218 256,-321 407,-163 32,33 63,94 63,123 0,8 -8,15 -17,15 -21,0 -53,-70 -53,-113 0,-24 -4,-27 -35,-27 -19,0 -35,-4 -35,-9 0,-5 -11,-11 -23,-13 l -24,-5 26,46 c 23,41 26,57 26,146 0,92 -2,104 -28,148 l -29,48 31,-15 c 16,-9 44,-16 61,-16 26,0 30,-4 30,-27 0,-43 32,-113 53,-113 54,0 -28,146 -106,186 -33,18 -101,30 -142,26 z" /><path
         id="pd0Qs3HG6"
         d="m 3168,3330 c -59,-11 -129,-60 -162,-114 -97,-156 16,-359 200,-359 114,-1 207,72 234,184 39,163 -107,319 -272,289 z m 132,-55 c 0,-8 6,-15 13,-15 7,0 18,-9 25,-20 7,-11 18,-20 25,-20 13,0 47,-92 47,-128 0,-60 -64,-152 -124,-180 -38,-17 -38,-16 -11,24 31,46 38,83 34,187 -3,71 -8,90 -32,125 l -27,42 h 25 c 16,0 25,-6 25,-15 z" /><path
         id="pCoWr8CHI"
         d="m 3510,1995 c 0,-104 2,-125 15,-125 8,0 16,7 16,15 1,8 3,20 4,25 1,6 3,51 4,101 1,69 4,90 14,86 6,-3 36,-14 65,-26 l 52,-21 v 25 c 0,20 -5,25 -25,25 -14,0 -25,5 -25,10 0,6 -27,10 -60,10 h -60 z" /><path
         id="puPuucOZP"
         d="m 3830,2000 c 0,-12 33,-30 54,-30 9,0 16,9 16,20 0,16 -7,20 -35,20 -19,0 -35,-4 -35,-10 z" /><path
         id="p7iXrF1Dx"
         d="m 3500,1790 c 0,-28 2,-29 20,-18 11,7 20,21 20,30 0,11 -8,18 -20,18 -16,0 -20,-7 -20,-30 z" /><path
         id="pWbX78tC8"
         d="m 3420,1715 c 0,-18 -5,-25 -20,-25 -11,0 -20,-7 -20,-15 0,-8 -4,-15 -10,-15 -5,0 -10,-11 -10,-25 0,-36 23,-31 53,13 15,20 36,49 47,65 l 22,27 h -31 c -26,0 -31,-4 -31,-25 z" /></g></g><g
     id="l1f4lo4O1eJKFL4WlXcatuV"
     fill="#fd4755"><g
       id="g585"><path
         id="pq5lH2w7r"
         d="m 1395,4689 c -176,-33 -332,-117 -459,-247 -73,-75 -108,-124 -157,-227 -54,-112 -71,-182 -76,-322 -5,-105 -8,-123 -22,-123 -14,0 -16,-21 -16,-190 0,-144 3,-190 12,-190 9,0 13,47 16,183 2,100 1,-23 -1,-273 -5,-501 4,-660 43,-815 51,-204 157,-388 310,-541 200,-201 440,-314 726,-344 56,-5 332,-10 620,-10 h 518 l 83,26 c 172,54 384,186 497,310 48,52 51,59 51,109 0,30 4,56 9,60 6,3 82,-24 170,-60 155,-63 162,-65 248,-65 83,0 113,8 113,32 0,4 -40,8 -90,8 -84,0 -97,3 -217,51 -71,28 -129,52 -131,54 -2,2 10,27 27,56 39,70 88,188 106,259 11,44 26,67 68,111 79,81 126,192 127,297 0,55 -27,59 -35,5 -9,-65 -46,-165 -75,-209 -46,-65 -135,-140 -198,-166 l -57,-23 -1055,-3 c -975,-2 -1059,-1 -1110,15 -122,38 -237,148 -283,269 -21,58 -22,70 -25,517 -2,291 1,478 8,515 31,169 175,314 348,351 37,8 355,11 1050,11 1074,0 1045,1 1159,-52 26,-12 73,-47 104,-78 79,-79 113,-149 134,-282 9,-58 35,-51 35,10 0,72 -48,222 -71,222 -4,0 -9,9 -12,20 -3,11 -12,20 -20,20 -9,0 -17,10 -19,23 -2,14 -11,23 -25,25 -16,2 -23,10 -23,26 0,38 -30,127 -70,207 -88,178 -222,308 -408,397 l -77,37 -900,1 c -520,1 -921,-2 -950,-7 z" /><path
         id="ph7m90Xdo"
         d="m 4340,3080 c 0,-283 2,-340 14,-340 7,0 16,10 20,23 3,12 6,158 6,325 0,262 2,302 15,302 8,0 15,7 15,15 0,10 -11,15 -35,15 h -35 z" /><path
         id="pDvYyGc7j"
         d="m 3462,1787 c -12,-13 -22,-33 -22,-45 0,-16 -6,-22 -21,-22 -12,0 -23,-8 -26,-20 -3,-11 -9,-20 -14,-20 -5,0 -9,-7 -9,-15 0,-8 -4,-15 -10,-15 -5,0 -10,-11 -10,-24 0,-32 30,-25 52,12 9,15 44,57 77,94 34,36 61,69 61,72 0,16 -59,3 -78,-17 z" /><path
         id="pnIrVoRDL"
         d="m 2478,1133 c -10,-2 -18,-8 -18,-12 0,-4 -9,-7 -20,-8 -54,-4 -170,-114 -196,-185 -20,-54 -12,-151 18,-220 43,-101 194,-200 255,-167 34,18 79,83 99,142 12,36 15,74 12,145 -3,84 -8,104 -33,151 -16,29 -48,69 -70,88 l -40,35 78,-7 c 55,-5 77,-3 77,5 0,27 -104,48 -162,33 z" /><path
         id="pZNKKa2jq"
         d="m 2770,980 c 0,-12 8,-48 18,-80 12,-44 22,-60 35,-60 21,0 22,21 3,83 -19,63 -56,101 -56,57 z" /></g></g><g
     id="l0dZZqBgnnTJ74fRsWUrns"
     fill="#1785f8"><g
       id="g590"><path
         id="p184qlzV8i"
         d="m 4340,3580 c 0,-189 2,-220 15,-220 8,0 15,7 15,16 0,14 23,15 203,12 186,-3 206,-5 248,-26 91,-45 164,-128 200,-225 7,-20 16,-37 20,-37 11,0 19,70 19,171 0,177 -51,312 -155,407 -82,75 -116,84 -342,90 -156,3 -193,7 -193,18 0,8 -7,14 -15,14 -13,0 -15,-31 -15,-220 z" /><path
         id="pTlQo1wLa"
         d="m 310,3756 c -30,-7 -70,-20 -89,-30 C 134,3680 47,3546 19,3415 5,3348 4,3171 18,3125 c 9,-30 9,-30 40,37 38,84 108,160 181,195 54,27 61,28 254,31 l 197,4 v 189 189 l -162,-1 c -90,0 -188,-6 -218,-13 z" /></g></g><g
     id="l5KuseK9VZ1rdJkwaRo8npt"
     fill="#f2671f"><g
       id="g599"><path
         id="pbWmwANVl"
         d="m 1832,3322 c -8,-6 -1,-13 23,-25 42,-20 91,-85 106,-141 25,-91 -12,-196 -88,-251 -23,-16 -42,-33 -42,-37 -1,-12 97,-9 140,3 128,39 195,198 135,324 -28,60 -56,87 -116,114 -45,21 -134,28 -158,13 z" /><path
         id="pBDhRSZC7"
         d="m 3147,3324 c -3,-4 11,-20 33,-35 63,-46 94,-100 98,-176 6,-84 -16,-139 -73,-192 -25,-23 -49,-41 -55,-41 -6,0 -8,-4 -5,-10 10,-15 111,-12 153,6 49,20 100,70 123,119 24,53 25,147 0,201 -22,49 -92,111 -140,124 -40,11 -124,13 -134,4 z" /><path
         id="plxCQYvIB"
         d="m 3660,2071 c 0,-9 19,-20 30,-17 3,0 18,-7 33,-17 15,-9 27,-15 27,-12 0,3 10,0 23,-7 38,-21 57,-20 57,2 0,15 -7,20 -25,20 -14,0 -25,5 -25,10 0,6 -11,10 -25,10 -14,0 -25,5 -25,10 0,6 -16,10 -35,10 -19,0 -35,-4 -35,-9 z" /><path
         id="pmegMuZ05"
         d="m 3840,2004 c 0,-14 34,-31 52,-26 33,8 21,32 -17,32 -19,0 -35,-3 -35,-6 z" /><path
         id="p11Xpm265g"
         d="m 4020,1996 c 0,-22 37,-26 56,-5 16,18 16,19 -19,19 -25,0 -37,-5 -37,-14 z" /><path
         id="pHNYUjog5"
         d="m 3410,1695 c 0,-33 1,-34 18,-17 45,47 47,52 13,52 -29,0 -31,-2 -31,-35 z" /></g></g><g
     id="l2s9OiLsRMpFqm7WvcYfhW6"
     fill="#f92c3d"><g
       id="g605"><path
         id="pyCnAq0av"
         d="m 3109,4690 c 199,-41 392,-165 513,-329 53,-71 112,-191 134,-271 14,-49 28,-75 59,-108 50,-51 92,-125 111,-196 17,-63 20,-934 3,-1005 -17,-74 -60,-152 -116,-210 -43,-44 -57,-67 -69,-113 -20,-79 -75,-207 -124,-290 -23,-38 -40,-71 -38,-72 1,-2 67,-28 146,-59 139,-56 144,-57 241,-57 h 99 l 36,45 c 104,126 186,290 234,464 l 27,96 v 710 c 0,707 0,710 -23,788 -82,284 -300,503 -584,589 -67,20 -97,22 -383,24 -205,2 -295,0 -266,-6 z" /><path
         id="pH5iADzOJ"
         d="m 3472,1971 c -163,-183 -443,-331 -697,-370 -42,-7 35,-9 255,-7 173,2 323,6 333,11 10,4 31,27 47,51 17,23 53,66 80,94 l 51,52 -3,120 -3,119 z" /><path
         id="p1H57gxJim"
         d="m 2431,1113 -34,-14 50,-29 c 91,-52 143,-136 151,-241 7,-107 -33,-200 -113,-260 -42,-32 -32,-39 50,-39 73,0 152,31 203,80 201,193 67,523 -211,519 -34,0 -77,-7 -96,-16 z" /></g></g></g></svg>
